<svg width="168" height="42" viewBox="0 0 168 42" fill="none" xmlns="http://www.w3.org/2000/svg">
<path d="M74.064 26.0137V29.4937H71.976C70.472 29.4937 69.304 29.1657 68.472 28.5097C67.656 27.8377 67.248 26.6937 67.248 25.0777V19.5097H66V16.1017H67.248V12.8377H71.352V16.1017H74.04V19.5097H71.352V25.0777C71.352 25.3977 71.448 25.6377 71.64 25.7977C71.832 25.9417 72.152 26.0137 72.6 26.0137H74.064Z" fill="#042252"/>
<path d="M82.9209 15.9577C84.2009 15.9577 85.3689 16.2377 86.4249 16.7977C87.4969 17.3417 88.3449 18.1337 88.9689 19.1737C89.5929 20.1977 89.9049 21.3977 89.9049 22.7737C89.9049 24.1497 89.5929 25.3577 88.9689 26.3977C88.3609 27.4377 87.5289 28.2457 86.4729 28.8217C85.4169 29.3817 84.2409 29.6617 82.9449 29.6617C81.6489 29.6617 80.4649 29.3817 79.3929 28.8217C78.3209 28.2457 77.4729 27.4377 76.8489 26.3977C76.2249 25.3577 75.9129 24.1497 75.9129 22.7737C75.9129 21.3977 76.2249 20.1977 76.8489 19.1737C77.4729 18.1337 78.3129 17.3417 79.3689 16.7977C80.4409 16.2377 81.6249 15.9577 82.9209 15.9577ZM82.9209 19.4617C82.1369 19.4617 81.4649 19.7497 80.9049 20.3257C80.3609 20.8857 80.0889 21.7097 80.0889 22.7977C80.0889 23.8857 80.3689 24.7177 80.9289 25.2937C81.5049 25.8697 82.1769 26.1577 82.9449 26.1577C83.7129 26.1577 84.3689 25.8697 84.9129 25.2937C85.4569 24.7177 85.7289 23.8857 85.7289 22.7977C85.7289 21.7097 85.4489 20.8857 84.8889 20.3257C84.3289 19.7497 83.6729 19.4617 82.9209 19.4617Z" fill="#042252"/>
<path d="M97.6646 15.9577C99.3766 15.9577 100.689 16.5897 101.601 17.8537V11.7337H105.705V29.4937H101.601V27.5497C100.609 28.9577 99.2966 29.6617 97.6646 29.6617C96.5606 29.6617 95.5366 29.3737 94.5926 28.7977C93.6646 28.2217 92.9286 27.4137 92.3846 26.3737C91.8406 25.3337 91.5686 24.1497 91.5686 22.8217C91.5686 21.4937 91.8406 20.3097 92.3846 19.2697C92.9286 18.2297 93.6646 17.4217 94.5926 16.8457C95.5366 16.2537 96.5606 15.9577 97.6646 15.9577ZM98.6726 19.5097C98.1926 19.5097 97.7206 19.6377 97.2566 19.8937C96.8086 20.1337 96.4406 20.5017 96.1526 20.9977C95.8806 21.4937 95.7446 22.1017 95.7446 22.8217C95.7446 23.5417 95.8806 24.1497 96.1526 24.6457C96.4406 25.1257 96.8086 25.4937 97.2566 25.7497C97.7046 25.9897 98.1766 26.1097 98.6726 26.1097C99.1526 26.1097 99.6166 25.9897 100.065 25.7497C100.529 25.4937 100.897 25.1177 101.169 24.6217C101.457 24.1257 101.601 23.5177 101.601 22.7977C101.601 22.0777 101.457 21.4777 101.169 20.9977C100.897 20.5017 100.537 20.1337 100.089 19.8937C99.6406 19.6377 99.1686 19.5097 98.6726 19.5097Z" fill="#042252"/>
<path d="M115.358 15.9577C116.638 15.9577 117.806 16.2377 118.862 16.7977C119.934 17.3417 120.782 18.1337 121.406 19.1737C122.03 20.1977 122.342 21.3977 122.342 22.7737C122.342 24.1497 122.03 25.3577 121.406 26.3977C120.798 27.4377 119.966 28.2457 118.91 28.8217C117.854 29.3817 116.678 29.6617 115.382 29.6617C114.086 29.6617 112.902 29.3817 111.83 28.8217C110.758 28.2457 109.91 27.4377 109.286 26.3977C108.662 25.3577 108.35 24.1497 108.35 22.7737C108.35 21.3977 108.662 20.1977 109.286 19.1737C109.91 18.1337 110.75 17.3417 111.806 16.7977C112.878 16.2377 114.062 15.9577 115.358 15.9577ZM115.358 19.4617C114.574 19.4617 113.902 19.7497 113.342 20.3257C112.798 20.8857 112.526 21.7097 112.526 22.7977C112.526 23.8857 112.806 24.7177 113.366 25.2937C113.942 25.8697 114.614 26.1577 115.382 26.1577C116.15 26.1577 116.806 25.8697 117.35 25.2937C117.894 24.7177 118.166 23.8857 118.166 22.7977C118.166 21.7097 117.886 20.8857 117.326 20.3257C116.766 19.7497 116.11 19.4617 115.358 19.4617Z" fill="#042252"/>
<path d="M124.51 28.1017C124.51 27.7017 124.646 27.3657 124.918 27.0937C125.19 26.8217 125.518 26.6857 125.902 26.6857C126.286 26.6857 126.614 26.8217 126.886 27.0937C127.158 27.3657 127.294 27.7017 127.294 28.1017C127.294 28.4857 127.158 28.8137 126.886 29.0857C126.614 29.3577 126.286 29.4937 125.902 29.4937C125.518 29.4937 125.19 29.3577 124.918 29.0857C124.646 28.8137 124.51 28.4857 124.51 28.1017Z" fill="#042252"/>
<path d="M132.588 11.7337V29.4937H130.404V11.7337H132.588Z" fill="#042252"/>
<path d="M135.833 12.7177C135.833 12.3017 135.977 11.9497 136.265 11.6617C136.553 11.3737 136.897 11.2297 137.297 11.2297C137.713 11.2297 138.065 11.3737 138.353 11.6617C138.641 11.9497 138.785 12.3017 138.785 12.7177C138.785 13.1337 138.641 13.4857 138.353 13.7737C138.065 14.0617 137.713 14.2057 137.297 14.2057C136.881 14.2057 136.529 14.0617 136.241 13.7737C135.969 13.4857 135.833 13.1337 135.833 12.7177ZM138.377 16.3177V29.4937H136.193V16.3177H138.377Z" fill="#042252"/>
<path d="M146.518 16.1017C147.942 16.1017 149.07 16.4777 149.902 17.2297C150.734 17.9657 151.19 18.9817 151.27 20.2777H149.014C148.982 19.5417 148.734 18.9497 148.27 18.5017C147.806 18.0537 147.166 17.8297 146.35 17.8297C145.518 17.8297 144.862 18.0297 144.382 18.4297C143.918 18.8137 143.686 19.3017 143.686 19.8937C143.686 20.3897 143.83 20.7897 144.118 21.0937C144.422 21.3817 144.79 21.5977 145.222 21.7417C145.67 21.8857 146.27 22.0377 147.022 22.1977C147.982 22.4217 148.75 22.6457 149.326 22.8697C149.918 23.0777 150.422 23.4377 150.838 23.9497C151.254 24.4457 151.462 25.1257 151.462 25.9897C151.462 26.7097 151.254 27.3577 150.838 27.9337C150.422 28.4937 149.838 28.9337 149.086 29.2537C148.334 29.5577 147.47 29.7097 146.494 29.7097C145.022 29.7097 143.838 29.3417 142.942 28.6057C142.062 27.8697 141.582 26.8537 141.502 25.5577H143.758C143.79 26.2937 144.046 26.8857 144.526 27.3337C145.022 27.7657 145.678 27.9817 146.494 27.9817C147.39 27.9817 148.078 27.7977 148.558 27.4297C149.054 27.0617 149.302 26.5737 149.302 25.9657C149.302 25.4697 149.15 25.0777 148.846 24.7897C148.558 24.4857 148.19 24.2617 147.742 24.1177C147.294 23.9577 146.678 23.7897 145.894 23.6137C144.95 23.4057 144.182 23.1977 143.59 22.9897C143.014 22.7657 142.518 22.4217 142.102 21.9577C141.702 21.4937 141.502 20.8537 141.502 20.0377C141.502 19.3177 141.702 18.6617 142.102 18.0697C142.518 17.4617 143.102 16.9817 143.854 16.6297C144.622 16.2777 145.51 16.1017 146.518 16.1017Z" fill="#042252"/>
<path d="M160.735 27.7177V29.4937H158.527C157.407 29.4937 156.551 29.2217 155.959 28.6777C155.383 28.1337 155.095 27.2777 155.095 26.1097V18.0937H153.391V16.3177H155.095V13.0537H157.303V16.3177H160.711V18.0937H157.303V26.1097C157.303 26.7017 157.423 27.1177 157.663 27.3577C157.903 27.5977 158.327 27.7177 158.935 27.7177H160.735Z" fill="#042252"/>
<rect y="19.5602" width="13.2806" height="29.0047" rx="6.6403" transform="rotate(-43.0539 0 19.5602)" fill="url(#paint0_linear_1_50)"/>
<g filter="url(#filter0_d_1_50)">
<rect x="19.9462" y="40.717" width="13.2806" height="42.4979" rx="6.6403" transform="rotate(-133.054 19.9462 40.717)" fill="url(#paint1_linear_1_50)"/>
</g>
<defs>
<filter id="filter0_d_1_50" x="5.62483" y="0.745056" width="42.6301" height="41.2269" filterUnits="userSpaceOnUse" color-interpolation-filters="sRGB">
<feFlood flood-opacity="0" result="BackgroundImageFix"/>
<feColorMatrix in="SourceAlpha" type="matrix" values="0 0 0 0 0 0 0 0 0 0 0 0 0 0 0 0 0 0 127 0" result="hardAlpha"/>
<feOffset dx="-4"/>
<feGaussianBlur stdDeviation="2"/>
<feComposite in2="hardAlpha" operator="out"/>
<feColorMatrix type="matrix" values="0 0 0 0 0.101961 0 0 0 0 0.341176 0 0 0 0 0.709804 0 0 0 0.2 0"/>
<feBlend mode="normal" in2="BackgroundImageFix" result="effect1_dropShadow_1_50"/>
<feBlend mode="normal" in="SourceGraphic" in2="effect1_dropShadow_1_50" result="shape"/>
</filter>
<linearGradient id="paint0_linear_1_50" x1="6.6403" y1="19.5602" x2="6.6403" y2="48.565" gradientUnits="userSpaceOnUse">
<stop stop-color="#E087FF"/>
<stop offset="0.713542" stop-color="#1A57B5"/>
</linearGradient>
<linearGradient id="paint1_linear_1_50" x1="26.5865" y1="40.717" x2="26.5865" y2="83.2149" gradientUnits="userSpaceOnUse">
<stop stop-color="#1A57B5"/>
<stop offset="0.5" stop-color="#42A2E8"/>
<stop offset="1" stop-color="#87FFE2"/>
</linearGradient>
</defs>
</svg>
