<svg width="168" height="39" viewBox="0 0 168 39" fill="none" xmlns="http://www.w3.org/2000/svg">
<path d="M74.064 24.0137V27.4937H71.976C70.472 27.4937 69.304 27.1657 68.472 26.5097C67.656 25.8377 67.248 24.6937 67.248 23.0777V17.5097H66V14.1017H67.248V10.8377H71.352V14.1017H74.04V17.5097H71.352V23.0777C71.352 23.3977 71.448 23.6377 71.64 23.7977C71.832 23.9417 72.152 24.0137 72.6 24.0137H74.064Z" fill="white"/>
<path d="M82.9209 13.9577C84.2009 13.9577 85.3689 14.2377 86.4249 14.7977C87.4969 15.3417 88.3449 16.1337 88.9689 17.1737C89.5929 18.1977 89.9049 19.3977 89.9049 20.7737C89.9049 22.1497 89.5929 23.3577 88.9689 24.3977C88.3609 25.4377 87.5289 26.2457 86.4729 26.8217C85.4169 27.3817 84.2409 27.6617 82.9449 27.6617C81.6489 27.6617 80.4649 27.3817 79.3929 26.8217C78.3209 26.2457 77.4729 25.4377 76.8489 24.3977C76.2249 23.3577 75.9129 22.1497 75.9129 20.7737C75.9129 19.3977 76.2249 18.1977 76.8489 17.1737C77.4729 16.1337 78.3129 15.3417 79.3689 14.7977C80.4409 14.2377 81.6249 13.9577 82.9209 13.9577ZM82.9209 17.4617C82.1369 17.4617 81.4649 17.7497 80.9049 18.3257C80.3609 18.8857 80.0889 19.7097 80.0889 20.7977C80.0889 21.8857 80.3689 22.7177 80.9289 23.2937C81.5049 23.8697 82.1769 24.1577 82.9449 24.1577C83.7129 24.1577 84.3689 23.8697 84.9129 23.2937C85.4569 22.7177 85.7289 21.8857 85.7289 20.7977C85.7289 19.7097 85.4489 18.8857 84.8889 18.3257C84.3289 17.7497 83.6729 17.4617 82.9209 17.4617Z" fill="white"/>
<path d="M97.6646 13.9577C99.3766 13.9577 100.689 14.5897 101.601 15.8537V9.73372H105.705V27.4937H101.601V25.5497C100.609 26.9577 99.2966 27.6617 97.6646 27.6617C96.5606 27.6617 95.5366 27.3737 94.5926 26.7977C93.6646 26.2217 92.9286 25.4137 92.3846 24.3737C91.8406 23.3337 91.5686 22.1497 91.5686 20.8217C91.5686 19.4937 91.8406 18.3097 92.3846 17.2697C92.9286 16.2297 93.6646 15.4217 94.5926 14.8457C95.5366 14.2537 96.5606 13.9577 97.6646 13.9577ZM98.6726 17.5097C98.1926 17.5097 97.7206 17.6377 97.2566 17.8937C96.8086 18.1337 96.4406 18.5017 96.1526 18.9977C95.8806 19.4937 95.7446 20.1017 95.7446 20.8217C95.7446 21.5417 95.8806 22.1497 96.1526 22.6457C96.4406 23.1257 96.8086 23.4937 97.2566 23.7497C97.7046 23.9897 98.1766 24.1097 98.6726 24.1097C99.1526 24.1097 99.6166 23.9897 100.065 23.7497C100.529 23.4937 100.897 23.1177 101.169 22.6217C101.457 22.1257 101.601 21.5177 101.601 20.7977C101.601 20.0777 101.457 19.4777 101.169 18.9977C100.897 18.5017 100.537 18.1337 100.089 17.8937C99.6406 17.6377 99.1686 17.5097 98.6726 17.5097Z" fill="white"/>
<path d="M115.358 13.9577C116.638 13.9577 117.806 14.2377 118.862 14.7977C119.934 15.3417 120.782 16.1337 121.406 17.1737C122.03 18.1977 122.342 19.3977 122.342 20.7737C122.342 22.1497 122.03 23.3577 121.406 24.3977C120.798 25.4377 119.966 26.2457 118.91 26.8217C117.854 27.3817 116.678 27.6617 115.382 27.6617C114.086 27.6617 112.902 27.3817 111.83 26.8217C110.758 26.2457 109.91 25.4377 109.286 24.3977C108.662 23.3577 108.35 22.1497 108.35 20.7737C108.35 19.3977 108.662 18.1977 109.286 17.1737C109.91 16.1337 110.75 15.3417 111.806 14.7977C112.878 14.2377 114.062 13.9577 115.358 13.9577ZM115.358 17.4617C114.574 17.4617 113.902 17.7497 113.342 18.3257C112.798 18.8857 112.526 19.7097 112.526 20.7977C112.526 21.8857 112.806 22.7177 113.366 23.2937C113.942 23.8697 114.614 24.1577 115.382 24.1577C116.15 24.1577 116.806 23.8697 117.35 23.2937C117.894 22.7177 118.166 21.8857 118.166 20.7977C118.166 19.7097 117.886 18.8857 117.326 18.3257C116.766 17.7497 116.11 17.4617 115.358 17.4617Z" fill="white"/>
<path d="M124.51 26.1017C124.51 25.7017 124.646 25.3657 124.918 25.0937C125.19 24.8217 125.518 24.6857 125.902 24.6857C126.286 24.6857 126.614 24.8217 126.886 25.0937C127.158 25.3657 127.294 25.7017 127.294 26.1017C127.294 26.4857 127.158 26.8137 126.886 27.0857C126.614 27.3577 126.286 27.4937 125.902 27.4937C125.518 27.4937 125.19 27.3577 124.918 27.0857C124.646 26.8137 124.51 26.4857 124.51 26.1017Z" fill="white"/>
<path d="M132.588 9.73372V27.4937H130.404V9.73372H132.588Z" fill="white"/>
<path d="M135.833 10.7177C135.833 10.3017 135.977 9.94972 136.265 9.66172C136.553 9.37372 136.897 9.22972 137.297 9.22972C137.713 9.22972 138.065 9.37372 138.353 9.66172C138.641 9.94972 138.785 10.3017 138.785 10.7177C138.785 11.1337 138.641 11.4857 138.353 11.7737C138.065 12.0617 137.713 12.2057 137.297 12.2057C136.881 12.2057 136.529 12.0617 136.241 11.7737C135.969 11.4857 135.833 11.1337 135.833 10.7177ZM138.377 14.3177V27.4937H136.193V14.3177H138.377Z" fill="white"/>
<path d="M146.518 14.1017C147.942 14.1017 149.07 14.4777 149.902 15.2297C150.734 15.9657 151.19 16.9817 151.27 18.2777H149.014C148.982 17.5417 148.734 16.9497 148.27 16.5017C147.806 16.0537 147.166 15.8297 146.35 15.8297C145.518 15.8297 144.862 16.0297 144.382 16.4297C143.918 16.8137 143.686 17.3017 143.686 17.8937C143.686 18.3897 143.83 18.7897 144.118 19.0937C144.422 19.3817 144.79 19.5977 145.222 19.7417C145.67 19.8857 146.27 20.0377 147.022 20.1977C147.982 20.4217 148.75 20.6457 149.326 20.8697C149.918 21.0777 150.422 21.4377 150.838 21.9497C151.254 22.4457 151.462 23.1257 151.462 23.9897C151.462 24.7097 151.254 25.3577 150.838 25.9337C150.422 26.4937 149.838 26.9337 149.086 27.2537C148.334 27.5577 147.47 27.7097 146.494 27.7097C145.022 27.7097 143.838 27.3417 142.942 26.6057C142.062 25.8697 141.582 24.8537 141.502 23.5577H143.758C143.79 24.2937 144.046 24.8857 144.526 25.3337C145.022 25.7657 145.678 25.9817 146.494 25.9817C147.39 25.9817 148.078 25.7977 148.558 25.4297C149.054 25.0617 149.302 24.5737 149.302 23.9657C149.302 23.4697 149.15 23.0777 148.846 22.7897C148.558 22.4857 148.19 22.2617 147.742 22.1177C147.294 21.9577 146.678 21.7897 145.894 21.6137C144.95 21.4057 144.182 21.1977 143.59 20.9897C143.014 20.7657 142.518 20.4217 142.102 19.9577C141.702 19.4937 141.502 18.8537 141.502 18.0377C141.502 17.3177 141.702 16.6617 142.102 16.0697C142.518 15.4617 143.102 14.9817 143.854 14.6297C144.622 14.2777 145.51 14.1017 146.518 14.1017Z" fill="white"/>
<path d="M160.735 25.7177V27.4937H158.527C157.407 27.4937 156.551 27.2217 155.959 26.6777C155.383 26.1337 155.095 25.2777 155.095 24.1097V16.0937H153.391V14.3177H155.095V11.0537H157.303V14.3177H160.711V16.0937H157.303V24.1097C157.303 24.7017 157.423 25.1177 157.663 25.3577C157.903 25.5977 158.327 25.7177 158.935 25.7177H160.735Z" fill="white"/>
<rect y="17.5602" width="13.2806" height="29.0047" rx="6.6403" transform="rotate(-43.0539 0 17.5602)" fill="white" fill-opacity="0.8"/>
<rect x="19.9462" y="38.717" width="13.2806" height="42.4979" rx="6.6403" transform="rotate(-133.054 19.9462 38.717)" fill="white"/>
</svg>
